<svg id="Capa_1" enable-background="new 0 0 497 497" height="512" viewBox="0 0 497 497" width="512" xmlns="http://www.w3.org/2000/svg"><g><path d="m241 15h15v467h-15z" fill="#c4f3ff"/><path d="m141.375 280.2-75-78.4 75-78.4h22.5c4.142 0 7.5 3.358 7.5 7.5v48.104l23.391 16.598c4.245 3.012 4.206 9.327-.076 12.286l-23.316 16.115v48.697c0 4.142-3.358 7.5-7.5 7.5z" fill="#f9b348"/><circle cx="248.5" cy="15" fill="#8ae7ff" r="15"/><circle cx="248.5" cy="108.4" fill="#9255e3" r="15"/><circle cx="248.5" cy="201.8" fill="#f3da49" r="15"/><circle cx="248.5" cy="295.2" fill="#94e368" r="15"/><circle cx="248.5" cy="388.6" fill="#14cfff" r="15"/><circle cx="248.5" cy="482" fill="#8ae7ff" r="15"/><path d="m467 216.8-75 78.4 75 78.4h22.5c4.142 0 7.5-3.358 7.5-7.5v-141.8c0-4.142-3.358-7.5-7.5-7.5z" fill="#61ce5b"/><path d="m467 373.6v-156.8h-133.875c-4.142 0-7.5 3.358-7.5 7.5v48.104l-23.391 16.598c-4.245 3.012-4.206 9.327.076 12.286l23.316 16.116v48.696c0 4.142 3.358 7.5 7.5 7.5z" fill="#94e368"/><path d="m467 30-75 78.4 75 78.4h22.5c4.142 0 7.5-3.358 7.5-7.5v-141.8c0-4.142-3.358-7.5-7.5-7.5z" fill="#793bcc"/><path d="m467 186.8v-156.8h-133.875c-4.142 0-7.5 3.358-7.5 7.5v48.104l-23.391 16.598c-4.245 3.012-4.206 9.327.076 12.286l23.316 16.115v48.697c0 4.142 3.358 7.5 7.5 7.5z" fill="#9255e3"/><path d="m141.375 123.4v156.8h-133.875c-4.142 0-7.5-3.358-7.5-7.5v-141.8c0-4.142 3.358-7.5 7.5-7.5z" fill="#f3da49"/><path d="m141.375 467-75-78.4 75-78.4h22.5c4.142 0 7.5 3.358 7.5 7.5v48.104l23.391 16.598c4.245 3.012 4.206 9.327-.076 12.286l-23.316 16.116v48.696c0 4.142-3.358 7.5-7.5 7.5z" fill="#28abfa"/><path d="m141.375 310.2v156.8h-133.875c-4.142 0-7.5-3.358-7.5-7.5v-141.8c0-4.142 3.358-7.5 7.5-7.5z" fill="#14cfff"/></g></svg>